<?xml version="1.0" encoding="utf-8" standalone="no"?>
<!DOCTYPE svg PUBLIC "-//W3C//DTD SVG 1.1//EN"
  "http://www.w3.org/Graphics/SVG/1.1/DTD/svg11.dtd">
<svg xmlns:xlink="http://www.w3.org/1999/xlink" width="1080pt" height="576pt" viewBox="0 0 1080 576" xmlns="http://www.w3.org/2000/svg" version="1.1">
 <metadata>
  <rdf:RDF xmlns:dc="http://purl.org/dc/elements/1.1/" xmlns:cc="http://creativecommons.org/ns#" xmlns:rdf="http://www.w3.org/1999/02/22-rdf-syntax-ns#">
   <cc:Work>
    <dc:type rdf:resource="http://purl.org/dc/dcmitype/StillImage"/>
    <dc:date>2022-03-17T22:11:53.771612</dc:date>
    <dc:format>image/svg+xml</dc:format>
    <dc:creator>
     <cc:Agent>
      <dc:title>Matplotlib v3.5.1, https://matplotlib.org/</dc:title>
     </cc:Agent>
    </dc:creator>
   </cc:Work>
  </rdf:RDF>
 </metadata>
 <defs>
  <style type="text/css">*{stroke-linejoin: round; stroke-linecap: butt}</style>
 </defs>
 <g id="figure_1">
  <g id="patch_1">
   <path d="M 0 576 
L 1080 576 
L 1080 0 
L 0 0 
z
" style="fill: #ffffff"/>
  </g>
  <g id="axes_1">
   <g id="patch_2">
    <path d="M 135 504 
L 972 504 
L 972 69.12 
L 135 69.12 
z
" style="fill: #e5e5e5"/>
   </g>
   <g id="matplotlib.axis_1">
    <g id="xtick_1">
     <g id="line2d_1">
      <path d="M 214.500162 504 
L 214.500162 69.12 
" clip-path="url(#p55c2093d48)" style="fill: none; stroke: #ffffff; stroke-width: 0.8; stroke-linecap: square"/>
     </g>
     <g id="line2d_2">
      <defs>
       <path id="m1a253255ba" d="M 0 0 
L 0 3.5 
" style="stroke: #555555; stroke-width: 0.8"/>
      </defs>
      <g>
       <use xlink:href="#m1a253255ba" x="214.500162" y="504" style="fill: #555555; stroke: #555555; stroke-width: 0.8"/>
      </g>
     </g>
     <g id="text_1">
      <!-- 1996 -->
      <g style="fill: #555555" transform="translate(201.775162 518.598438)scale(0.1 -0.1)">
       <defs>
        <path id="DejaVuSans-31" d="M 794 531 
L 1825 531 
L 1825 4091 
L 703 3866 
L 703 4441 
L 1819 4666 
L 2450 4666 
L 2450 531 
L 3481 531 
L 3481 0 
L 794 0 
L 794 531 
z
" transform="scale(0.015625)"/>
        <path id="DejaVuSans-39" d="M 703 97 
L 703 672 
Q 941 559 1184 500 
Q 1428 441 1663 441 
Q 2288 441 2617 861 
Q 2947 1281 2994 2138 
Q 2813 1869 2534 1725 
Q 2256 1581 1919 1581 
Q 1219 1581 811 2004 
Q 403 2428 403 3163 
Q 403 3881 828 4315 
Q 1253 4750 1959 4750 
Q 2769 4750 3195 4129 
Q 3622 3509 3622 2328 
Q 3622 1225 3098 567 
Q 2575 -91 1691 -91 
Q 1453 -91 1209 -44 
Q 966 3 703 97 
z
M 1959 2075 
Q 2384 2075 2632 2365 
Q 2881 2656 2881 3163 
Q 2881 3666 2632 3958 
Q 2384 4250 1959 4250 
Q 1534 4250 1286 3958 
Q 1038 3666 1038 3163 
Q 1038 2656 1286 2365 
Q 1534 2075 1959 2075 
z
" transform="scale(0.015625)"/>
        <path id="DejaVuSans-36" d="M 2113 2584 
Q 1688 2584 1439 2293 
Q 1191 2003 1191 1497 
Q 1191 994 1439 701 
Q 1688 409 2113 409 
Q 2538 409 2786 701 
Q 3034 994 3034 1497 
Q 3034 2003 2786 2293 
Q 2538 2584 2113 2584 
z
M 3366 4563 
L 3366 3988 
Q 3128 4100 2886 4159 
Q 2644 4219 2406 4219 
Q 1781 4219 1451 3797 
Q 1122 3375 1075 2522 
Q 1259 2794 1537 2939 
Q 1816 3084 2150 3084 
Q 2853 3084 3261 2657 
Q 3669 2231 3669 1497 
Q 3669 778 3244 343 
Q 2819 -91 2113 -91 
Q 1303 -91 875 529 
Q 447 1150 447 2328 
Q 447 3434 972 4092 
Q 1497 4750 2381 4750 
Q 2619 4750 2861 4703 
Q 3103 4656 3366 4563 
z
" transform="scale(0.015625)"/>
       </defs>
       <use xlink:href="#DejaVuSans-31"/>
       <use xlink:href="#DejaVuSans-39" x="63.623047"/>
       <use xlink:href="#DejaVuSans-39" x="127.246094"/>
       <use xlink:href="#DejaVuSans-36" x="190.869141"/>
      </g>
     </g>
    </g>
    <g id="xtick_2">
     <g id="line2d_3">
      <path d="M 324.819522 504 
L 324.819522 69.12 
" clip-path="url(#p55c2093d48)" style="fill: none; stroke: #ffffff; stroke-width: 0.8; stroke-linecap: square"/>
     </g>
     <g id="line2d_4">
      <g>
       <use xlink:href="#m1a253255ba" x="324.819522" y="504" style="fill: #555555; stroke: #555555; stroke-width: 0.8"/>
      </g>
     </g>
     <g id="text_2">
      <!-- 2000 -->
      <g style="fill: #555555" transform="translate(312.094522 518.598438)scale(0.1 -0.1)">
       <defs>
        <path id="DejaVuSans-32" d="M 1228 531 
L 3431 531 
L 3431 0 
L 469 0 
L 469 531 
Q 828 903 1448 1529 
Q 2069 2156 2228 2338 
Q 2531 2678 2651 2914 
Q 2772 3150 2772 3378 
Q 2772 3750 2511 3984 
Q 2250 4219 1831 4219 
Q 1534 4219 1204 4116 
Q 875 4013 500 3803 
L 500 4441 
Q 881 4594 1212 4672 
Q 1544 4750 1819 4750 
Q 2544 4750 2975 4387 
Q 3406 4025 3406 3419 
Q 3406 3131 3298 2873 
Q 3191 2616 2906 2266 
Q 2828 2175 2409 1742 
Q 1991 1309 1228 531 
z
" transform="scale(0.015625)"/>
        <path id="DejaVuSans-30" d="M 2034 4250 
Q 1547 4250 1301 3770 
Q 1056 3291 1056 2328 
Q 1056 1369 1301 889 
Q 1547 409 2034 409 
Q 2525 409 2770 889 
Q 3016 1369 3016 2328 
Q 3016 3291 2770 3770 
Q 2525 4250 2034 4250 
z
M 2034 4750 
Q 2819 4750 3233 4129 
Q 3647 3509 3647 2328 
Q 3647 1150 3233 529 
Q 2819 -91 2034 -91 
Q 1250 -91 836 529 
Q 422 1150 422 2328 
Q 422 3509 836 4129 
Q 1250 4750 2034 4750 
z
" transform="scale(0.015625)"/>
       </defs>
       <use xlink:href="#DejaVuSans-32"/>
       <use xlink:href="#DejaVuSans-30" x="63.623047"/>
       <use xlink:href="#DejaVuSans-30" x="127.246094"/>
       <use xlink:href="#DejaVuSans-30" x="190.869141"/>
      </g>
     </g>
    </g>
    <g id="xtick_3">
     <g id="line2d_5">
      <path d="M 435.138881 504 
L 435.138881 69.12 
" clip-path="url(#p55c2093d48)" style="fill: none; stroke: #ffffff; stroke-width: 0.8; stroke-linecap: square"/>
     </g>
     <g id="line2d_6">
      <g>
       <use xlink:href="#m1a253255ba" x="435.138881" y="504" style="fill: #555555; stroke: #555555; stroke-width: 0.8"/>
      </g>
     </g>
     <g id="text_3">
      <!-- 2004 -->
      <g style="fill: #555555" transform="translate(422.413881 518.598438)scale(0.1 -0.1)">
       <defs>
        <path id="DejaVuSans-34" d="M 2419 4116 
L 825 1625 
L 2419 1625 
L 2419 4116 
z
M 2253 4666 
L 3047 4666 
L 3047 1625 
L 3713 1625 
L 3713 1100 
L 3047 1100 
L 3047 0 
L 2419 0 
L 2419 1100 
L 313 1100 
L 313 1709 
L 2253 4666 
z
" transform="scale(0.015625)"/>
       </defs>
       <use xlink:href="#DejaVuSans-32"/>
       <use xlink:href="#DejaVuSans-30" x="63.623047"/>
       <use xlink:href="#DejaVuSans-30" x="127.246094"/>
       <use xlink:href="#DejaVuSans-34" x="190.869141"/>
      </g>
     </g>
    </g>
    <g id="xtick_4">
     <g id="line2d_7">
      <path d="M 545.45824 504 
L 545.45824 69.12 
" clip-path="url(#p55c2093d48)" style="fill: none; stroke: #ffffff; stroke-width: 0.8; stroke-linecap: square"/>
     </g>
     <g id="line2d_8">
      <g>
       <use xlink:href="#m1a253255ba" x="545.45824" y="504" style="fill: #555555; stroke: #555555; stroke-width: 0.8"/>
      </g>
     </g>
     <g id="text_4">
      <!-- 2008 -->
      <g style="fill: #555555" transform="translate(532.73324 518.598438)scale(0.1 -0.1)">
       <defs>
        <path id="DejaVuSans-38" d="M 2034 2216 
Q 1584 2216 1326 1975 
Q 1069 1734 1069 1313 
Q 1069 891 1326 650 
Q 1584 409 2034 409 
Q 2484 409 2743 651 
Q 3003 894 3003 1313 
Q 3003 1734 2745 1975 
Q 2488 2216 2034 2216 
z
M 1403 2484 
Q 997 2584 770 2862 
Q 544 3141 544 3541 
Q 544 4100 942 4425 
Q 1341 4750 2034 4750 
Q 2731 4750 3128 4425 
Q 3525 4100 3525 3541 
Q 3525 3141 3298 2862 
Q 3072 2584 2669 2484 
Q 3125 2378 3379 2068 
Q 3634 1759 3634 1313 
Q 3634 634 3220 271 
Q 2806 -91 2034 -91 
Q 1263 -91 848 271 
Q 434 634 434 1313 
Q 434 1759 690 2068 
Q 947 2378 1403 2484 
z
M 1172 3481 
Q 1172 3119 1398 2916 
Q 1625 2713 2034 2713 
Q 2441 2713 2670 2916 
Q 2900 3119 2900 3481 
Q 2900 3844 2670 4047 
Q 2441 4250 2034 4250 
Q 1625 4250 1398 4047 
Q 1172 3844 1172 3481 
z
" transform="scale(0.015625)"/>
       </defs>
       <use xlink:href="#DejaVuSans-32"/>
       <use xlink:href="#DejaVuSans-30" x="63.623047"/>
       <use xlink:href="#DejaVuSans-30" x="127.246094"/>
       <use xlink:href="#DejaVuSans-38" x="190.869141"/>
      </g>
     </g>
    </g>
    <g id="xtick_5">
     <g id="line2d_9">
      <path d="M 655.777599 504 
L 655.777599 69.12 
" clip-path="url(#p55c2093d48)" style="fill: none; stroke: #ffffff; stroke-width: 0.8; stroke-linecap: square"/>
     </g>
     <g id="line2d_10">
      <g>
       <use xlink:href="#m1a253255ba" x="655.777599" y="504" style="fill: #555555; stroke: #555555; stroke-width: 0.8"/>
      </g>
     </g>
     <g id="text_5">
      <!-- 2012 -->
      <g style="fill: #555555" transform="translate(643.052599 518.598438)scale(0.1 -0.1)">
       <use xlink:href="#DejaVuSans-32"/>
       <use xlink:href="#DejaVuSans-30" x="63.623047"/>
       <use xlink:href="#DejaVuSans-31" x="127.246094"/>
       <use xlink:href="#DejaVuSans-32" x="190.869141"/>
      </g>
     </g>
    </g>
    <g id="xtick_6">
     <g id="line2d_11">
      <path d="M 766.096958 504 
L 766.096958 69.12 
" clip-path="url(#p55c2093d48)" style="fill: none; stroke: #ffffff; stroke-width: 0.8; stroke-linecap: square"/>
     </g>
     <g id="line2d_12">
      <g>
       <use xlink:href="#m1a253255ba" x="766.096958" y="504" style="fill: #555555; stroke: #555555; stroke-width: 0.8"/>
      </g>
     </g>
     <g id="text_6">
      <!-- 2016 -->
      <g style="fill: #555555" transform="translate(753.371958 518.598438)scale(0.1 -0.1)">
       <use xlink:href="#DejaVuSans-32"/>
       <use xlink:href="#DejaVuSans-30" x="63.623047"/>
       <use xlink:href="#DejaVuSans-31" x="127.246094"/>
       <use xlink:href="#DejaVuSans-36" x="190.869141"/>
      </g>
     </g>
    </g>
    <g id="xtick_7">
     <g id="line2d_13">
      <path d="M 876.416317 504 
L 876.416317 69.12 
" clip-path="url(#p55c2093d48)" style="fill: none; stroke: #ffffff; stroke-width: 0.8; stroke-linecap: square"/>
     </g>
     <g id="line2d_14">
      <g>
       <use xlink:href="#m1a253255ba" x="876.416317" y="504" style="fill: #555555; stroke: #555555; stroke-width: 0.8"/>
      </g>
     </g>
     <g id="text_7">
      <!-- 2020 -->
      <g style="fill: #555555" transform="translate(863.691317 518.598438)scale(0.1 -0.1)">
       <use xlink:href="#DejaVuSans-32"/>
       <use xlink:href="#DejaVuSans-30" x="63.623047"/>
       <use xlink:href="#DejaVuSans-32" x="127.246094"/>
       <use xlink:href="#DejaVuSans-30" x="190.869141"/>
      </g>
     </g>
    </g>
    <g id="text_8">
     <!-- Meses -->
     <g style="fill: #555555" transform="translate(534.688125 533.79625)scale(0.12 -0.12)">
      <defs>
       <path id="DejaVuSans-4d" d="M 628 4666 
L 1569 4666 
L 2759 1491 
L 3956 4666 
L 4897 4666 
L 4897 0 
L 4281 0 
L 4281 4097 
L 3078 897 
L 2444 897 
L 1241 4097 
L 1241 0 
L 628 0 
L 628 4666 
z
" transform="scale(0.015625)"/>
       <path id="DejaVuSans-65" d="M 3597 1894 
L 3597 1613 
L 953 1613 
Q 991 1019 1311 708 
Q 1631 397 2203 397 
Q 2534 397 2845 478 
Q 3156 559 3463 722 
L 3463 178 
Q 3153 47 2828 -22 
Q 2503 -91 2169 -91 
Q 1331 -91 842 396 
Q 353 884 353 1716 
Q 353 2575 817 3079 
Q 1281 3584 2069 3584 
Q 2775 3584 3186 3129 
Q 3597 2675 3597 1894 
z
M 3022 2063 
Q 3016 2534 2758 2815 
Q 2500 3097 2075 3097 
Q 1594 3097 1305 2825 
Q 1016 2553 972 2059 
L 3022 2063 
z
" transform="scale(0.015625)"/>
       <path id="DejaVuSans-73" d="M 2834 3397 
L 2834 2853 
Q 2591 2978 2328 3040 
Q 2066 3103 1784 3103 
Q 1356 3103 1142 2972 
Q 928 2841 928 2578 
Q 928 2378 1081 2264 
Q 1234 2150 1697 2047 
L 1894 2003 
Q 2506 1872 2764 1633 
Q 3022 1394 3022 966 
Q 3022 478 2636 193 
Q 2250 -91 1575 -91 
Q 1294 -91 989 -36 
Q 684 19 347 128 
L 347 722 
Q 666 556 975 473 
Q 1284 391 1588 391 
Q 1994 391 2212 530 
Q 2431 669 2431 922 
Q 2431 1156 2273 1281 
Q 2116 1406 1581 1522 
L 1381 1569 
Q 847 1681 609 1914 
Q 372 2147 372 2553 
Q 372 3047 722 3315 
Q 1072 3584 1716 3584 
Q 2034 3584 2315 3537 
Q 2597 3491 2834 3397 
z
" transform="scale(0.015625)"/>
      </defs>
      <use xlink:href="#DejaVuSans-4d"/>
      <use xlink:href="#DejaVuSans-65" x="86.279297"/>
      <use xlink:href="#DejaVuSans-73" x="147.802734"/>
      <use xlink:href="#DejaVuSans-65" x="199.902344"/>
      <use xlink:href="#DejaVuSans-73" x="261.425781"/>
     </g>
    </g>
   </g>
   <g id="matplotlib.axis_2">
    <g id="ytick_1">
     <g id="line2d_15">
      <path d="M 135 438.390737 
L 972 438.390737 
" clip-path="url(#p55c2093d48)" style="fill: none; stroke: #ffffff; stroke-width: 0.8; stroke-linecap: square"/>
     </g>
     <g id="line2d_16">
      <defs>
       <path id="mcab102186a" d="M 0 0 
L -3.5 0 
" style="stroke: #555555; stroke-width: 0.8"/>
      </defs>
      <g>
       <use xlink:href="#mcab102186a" x="135" y="438.390737" style="fill: #555555; stroke: #555555; stroke-width: 0.8"/>
      </g>
     </g>
     <g id="text_9">
      <!-- 200 -->
      <g style="fill: #555555" transform="translate(108.9125 442.189955)scale(0.1 -0.1)">
       <use xlink:href="#DejaVuSans-32"/>
       <use xlink:href="#DejaVuSans-30" x="63.623047"/>
       <use xlink:href="#DejaVuSans-30" x="127.246094"/>
      </g>
     </g>
    </g>
    <g id="ytick_2">
     <g id="line2d_17">
      <path d="M 135 370.582156 
L 972 370.582156 
" clip-path="url(#p55c2093d48)" style="fill: none; stroke: #ffffff; stroke-width: 0.8; stroke-linecap: square"/>
     </g>
     <g id="line2d_18">
      <g>
       <use xlink:href="#mcab102186a" x="135" y="370.582156" style="fill: #555555; stroke: #555555; stroke-width: 0.8"/>
      </g>
     </g>
     <g id="text_10">
      <!-- 400 -->
      <g style="fill: #555555" transform="translate(108.9125 374.381375)scale(0.1 -0.1)">
       <use xlink:href="#DejaVuSans-34"/>
       <use xlink:href="#DejaVuSans-30" x="63.623047"/>
       <use xlink:href="#DejaVuSans-30" x="127.246094"/>
      </g>
     </g>
    </g>
    <g id="ytick_3">
     <g id="line2d_19">
      <path d="M 135 302.773576 
L 972 302.773576 
" clip-path="url(#p55c2093d48)" style="fill: none; stroke: #ffffff; stroke-width: 0.8; stroke-linecap: square"/>
     </g>
     <g id="line2d_20">
      <g>
       <use xlink:href="#mcab102186a" x="135" y="302.773576" style="fill: #555555; stroke: #555555; stroke-width: 0.8"/>
      </g>
     </g>
     <g id="text_11">
      <!-- 600 -->
      <g style="fill: #555555" transform="translate(108.9125 306.572795)scale(0.1 -0.1)">
       <use xlink:href="#DejaVuSans-36"/>
       <use xlink:href="#DejaVuSans-30" x="63.623047"/>
       <use xlink:href="#DejaVuSans-30" x="127.246094"/>
      </g>
     </g>
    </g>
    <g id="ytick_4">
     <g id="line2d_21">
      <path d="M 135 234.964995 
L 972 234.964995 
" clip-path="url(#p55c2093d48)" style="fill: none; stroke: #ffffff; stroke-width: 0.8; stroke-linecap: square"/>
     </g>
     <g id="line2d_22">
      <g>
       <use xlink:href="#mcab102186a" x="135" y="234.964995" style="fill: #555555; stroke: #555555; stroke-width: 0.8"/>
      </g>
     </g>
     <g id="text_12">
      <!-- 800 -->
      <g style="fill: #555555" transform="translate(108.9125 238.764214)scale(0.1 -0.1)">
       <use xlink:href="#DejaVuSans-38"/>
       <use xlink:href="#DejaVuSans-30" x="63.623047"/>
       <use xlink:href="#DejaVuSans-30" x="127.246094"/>
      </g>
     </g>
    </g>
    <g id="ytick_5">
     <g id="line2d_23">
      <path d="M 135 167.156415 
L 972 167.156415 
" clip-path="url(#p55c2093d48)" style="fill: none; stroke: #ffffff; stroke-width: 0.8; stroke-linecap: square"/>
     </g>
     <g id="line2d_24">
      <g>
       <use xlink:href="#mcab102186a" x="135" y="167.156415" style="fill: #555555; stroke: #555555; stroke-width: 0.8"/>
      </g>
     </g>
     <g id="text_13">
      <!-- 1000 -->
      <g style="fill: #555555" transform="translate(102.55 170.955634)scale(0.1 -0.1)">
       <use xlink:href="#DejaVuSans-31"/>
       <use xlink:href="#DejaVuSans-30" x="63.623047"/>
       <use xlink:href="#DejaVuSans-30" x="127.246094"/>
       <use xlink:href="#DejaVuSans-30" x="190.869141"/>
      </g>
     </g>
    </g>
    <g id="ytick_6">
     <g id="line2d_25">
      <path d="M 135 99.347835 
L 972 99.347835 
" clip-path="url(#p55c2093d48)" style="fill: none; stroke: #ffffff; stroke-width: 0.8; stroke-linecap: square"/>
     </g>
     <g id="line2d_26">
      <g>
       <use xlink:href="#mcab102186a" x="135" y="99.347835" style="fill: #555555; stroke: #555555; stroke-width: 0.8"/>
      </g>
     </g>
     <g id="text_14">
      <!-- 1200 -->
      <g style="fill: #555555" transform="translate(102.55 103.147053)scale(0.1 -0.1)">
       <use xlink:href="#DejaVuSans-31"/>
       <use xlink:href="#DejaVuSans-32" x="63.623047"/>
       <use xlink:href="#DejaVuSans-30" x="127.246094"/>
       <use xlink:href="#DejaVuSans-30" x="190.869141"/>
      </g>
     </g>
    </g>
    <g id="text_15">
     <!-- Reais (R$) -->
     <g style="fill: #555555" transform="translate(96.054375 317.195625)rotate(-90)scale(0.12 -0.12)">
      <defs>
       <path id="DejaVuSans-52" d="M 2841 2188 
Q 3044 2119 3236 1894 
Q 3428 1669 3622 1275 
L 4263 0 
L 3584 0 
L 2988 1197 
Q 2756 1666 2539 1819 
Q 2322 1972 1947 1972 
L 1259 1972 
L 1259 0 
L 628 0 
L 628 4666 
L 2053 4666 
Q 2853 4666 3247 4331 
Q 3641 3997 3641 3322 
Q 3641 2881 3436 2590 
Q 3231 2300 2841 2188 
z
M 1259 4147 
L 1259 2491 
L 2053 2491 
Q 2509 2491 2742 2702 
Q 2975 2913 2975 3322 
Q 2975 3731 2742 3939 
Q 2509 4147 2053 4147 
L 1259 4147 
z
" transform="scale(0.015625)"/>
       <path id="DejaVuSans-61" d="M 2194 1759 
Q 1497 1759 1228 1600 
Q 959 1441 959 1056 
Q 959 750 1161 570 
Q 1363 391 1709 391 
Q 2188 391 2477 730 
Q 2766 1069 2766 1631 
L 2766 1759 
L 2194 1759 
z
M 3341 1997 
L 3341 0 
L 2766 0 
L 2766 531 
Q 2569 213 2275 61 
Q 1981 -91 1556 -91 
Q 1019 -91 701 211 
Q 384 513 384 1019 
Q 384 1609 779 1909 
Q 1175 2209 1959 2209 
L 2766 2209 
L 2766 2266 
Q 2766 2663 2505 2880 
Q 2244 3097 1772 3097 
Q 1472 3097 1187 3025 
Q 903 2953 641 2809 
L 641 3341 
Q 956 3463 1253 3523 
Q 1550 3584 1831 3584 
Q 2591 3584 2966 3190 
Q 3341 2797 3341 1997 
z
" transform="scale(0.015625)"/>
       <path id="DejaVuSans-69" d="M 603 3500 
L 1178 3500 
L 1178 0 
L 603 0 
L 603 3500 
z
M 603 4863 
L 1178 4863 
L 1178 4134 
L 603 4134 
L 603 4863 
z
" transform="scale(0.015625)"/>
       <path id="DejaVuSans-20" transform="scale(0.015625)"/>
       <path id="DejaVuSans-28" d="M 1984 4856 
Q 1566 4138 1362 3434 
Q 1159 2731 1159 2009 
Q 1159 1288 1364 580 
Q 1569 -128 1984 -844 
L 1484 -844 
Q 1016 -109 783 600 
Q 550 1309 550 2009 
Q 550 2706 781 3412 
Q 1013 4119 1484 4856 
L 1984 4856 
z
" transform="scale(0.015625)"/>
       <path id="DejaVuSans-24" d="M 2163 -941 
L 1850 -941 
L 1847 0 
Q 1519 6 1191 76 
Q 863 147 531 288 
L 531 850 
Q 850 650 1176 548 
Q 1503 447 1850 444 
L 1850 1869 
Q 1159 1981 845 2250 
Q 531 2519 531 2988 
Q 531 3497 872 3790 
Q 1213 4084 1850 4128 
L 1850 4863 
L 2163 4863 
L 2163 4138 
Q 2453 4125 2725 4076 
Q 2997 4028 3256 3944 
L 3256 3397 
Q 2997 3528 2723 3600 
Q 2450 3672 2163 3684 
L 2163 2350 
Q 2872 2241 3206 1959 
Q 3541 1678 3541 1191 
Q 3541 663 3186 358 
Q 2831 53 2163 6 
L 2163 -941 
z
M 1850 2406 
L 1850 3688 
Q 1488 3647 1297 3481 
Q 1106 3316 1106 3041 
Q 1106 2772 1282 2622 
Q 1459 2472 1850 2406 
z
M 2163 1806 
L 2163 453 
Q 2559 506 2761 678 
Q 2963 850 2963 1131 
Q 2963 1406 2770 1568 
Q 2578 1731 2163 1806 
z
" transform="scale(0.015625)"/>
       <path id="DejaVuSans-29" d="M 513 4856 
L 1013 4856 
Q 1481 4119 1714 3412 
Q 1947 2706 1947 2009 
Q 1947 1309 1714 600 
Q 1481 -109 1013 -844 
L 513 -844 
Q 928 -128 1133 580 
Q 1338 1288 1338 2009 
Q 1338 2731 1133 3434 
Q 928 4138 513 4856 
z
" transform="scale(0.015625)"/>
      </defs>
      <use xlink:href="#DejaVuSans-52"/>
      <use xlink:href="#DejaVuSans-65" x="64.982422"/>
      <use xlink:href="#DejaVuSans-61" x="126.505859"/>
      <use xlink:href="#DejaVuSans-69" x="187.785156"/>
      <use xlink:href="#DejaVuSans-73" x="215.568359"/>
      <use xlink:href="#DejaVuSans-20" x="267.667969"/>
      <use xlink:href="#DejaVuSans-28" x="299.455078"/>
      <use xlink:href="#DejaVuSans-52" x="338.46875"/>
      <use xlink:href="#DejaVuSans-24" x="407.951172"/>
      <use xlink:href="#DejaVuSans-29" x="471.574219"/>
     </g>
    </g>
   </g>
   <g id="line2d_27">
    <path d="M 173.045455 484.232727 
L 175.386249 484.232727 
L 177.727043 482.466314 
L 193.735054 482.466314 
L 196.000338 472.295027 
L 221.371526 472.295027 
L 223.63681 468.226512 
L 248.932488 468.226512 
L 251.197773 465.514169 
L 276.49345 465.514169 
L 278.758735 462.12374 
L 304.054413 462.12374 
L 306.319697 460.089482 
L 329.350091 460.089482 
L 331.690885 455.003839 
L 356.911053 455.003839 
L 359.251847 445.171595 
L 384.472015 445.171595 
L 386.81281 438.390737 
L 412.032978 438.390737 
L 414.373772 424.82902 
L 442.010244 424.82902 
L 444.275528 418.048162 
L 469.571206 418.048162 
L 471.836491 404.486446 
L 494.791375 404.486446 
L 497.132169 387.534301 
L 522.352337 387.534301 
L 524.693131 377.363014 
L 547.799034 377.363014 
L 549.988809 365.496513 
L 573.094712 365.496513 
L 575.435506 348.544368 
L 598.31488 348.544368 
L 600.655674 333.287437 
L 628.216636 333.287437 
L 630.557431 321.420935 
L 653.436805 321.420935 
L 655.777599 295.314632 
L 681.073277 295.314632 
L 683.414071 276.328229 
L 708.634239 276.328229 
L 710.975033 260.732256 
L 736.195201 260.732256 
L 738.535996 239.03351 
L 763.756164 239.03351 
L 766.096958 207.841563 
L 791.392636 207.841563 
L 793.73343 188.516118 
L 818.953598 188.516118 
L 821.294392 182.752388 
L 846.514561 182.752388 
L 848.855355 167.834501 
L 874.075523 167.834501 
L 876.416317 153.933742 
L 878.757111 151.899484 
L 901.711995 151.899484 
L 904.052789 133.252125 
L 929.272957 133.252125 
L 931.613751 95.27932 
L 933.954545 94.940277 
L 933.954545 94.940277 
" clip-path="url(#p55c2093d48)" style="fill: none; stroke: #e24a33; stroke-width: 2; stroke-linecap: square"/>
   </g>
   <g id="line2d_28">
    <path d="M 173.045455 346.944425 
L 175.386249 357.140299 
L 177.727043 348.095294 
L 179.992327 350.477102 
L 182.333121 354.453221 
L 184.598406 358.600019 
L 189.279994 363.507431 
L 191.39426 364.947631 
L 193.735054 367.104095 
L 196.000338 312.206 
L 198.341132 317.25048 
L 202.947211 325.685075 
L 207.55329 329.207178 
L 212.159368 334.197145 
L 214.500162 336.838909 
L 216.840956 339.077975 
L 219.030732 340.78213 
L 221.371526 341.359249 
L 223.63681 323.876111 
L 228.242889 328.19134 
L 230.583683 330.145954 
L 232.924477 330.917395 
L 235.189762 331.179964 
L 239.79584 332.260888 
L 242.136634 333.074925 
L 244.477428 335.094435 
L 248.932488 336.810028 
L 251.197773 326.293827 
L 253.538567 327.028072 
L 255.803851 327.990259 
L 258.144645 328.38125 
L 260.485439 328.346231 
L 262.750724 328.452495 
L 267.356803 329.160586 
L 269.697597 329.918374 
L 272.038391 331.16058 
L 274.152656 331.96263 
L 276.49345 332.552505 
L 278.758735 318.531704 
L 281.099529 319.465559 
L 283.364814 319.502465 
L 285.705608 319.278257 
L 288.046402 318.320621 
L 290.311686 317.906085 
L 292.65248 317.943611 
L 294.917765 317.716937 
L 297.258559 318.33737 
L 299.599353 319.643593 
L 304.054413 323.590717 
L 306.319697 316.22637 
L 308.660491 316.795129 
L 310.925776 317.153709 
L 313.26657 319.191618 
L 315.607364 320.232808 
L 317.872649 320.807852 
L 320.213443 322.988607 
L 322.478727 324.712708 
L 327.160316 326.906339 
L 329.350091 327.139349 
L 331.690885 307.826374 
L 333.956169 308.656443 
L 336.296963 308.676064 
L 338.562248 309.129924 
L 340.903042 312.253014 
L 343.243836 314.760613 
L 345.509121 315.199585 
L 347.849915 315.466347 
L 350.115199 316.074924 
L 354.796787 318.26132 
L 356.911053 319.122083 
L 359.251847 284.037132 
L 361.517132 285.317927 
L 363.857926 286.219766 
L 366.12321 287.358228 
L 368.464004 290.230371 
L 370.804799 291.731164 
L 373.070083 292.329757 
L 375.410877 294.090237 
L 377.676162 295.586003 
L 380.016956 296.946598 
L 382.35775 298.029565 
L 384.472015 298.776346 
L 386.81281 277.103693 
L 389.078094 278.922294 
L 391.418888 279.398076 
L 393.684173 280.34611 
L 396.024967 283.002672 
L 398.365761 284.443673 
L 400.631045 286.028486 
L 402.97184 288.875904 
L 405.237124 295.247133 
L 409.918712 304.132556 
L 412.032978 307.25642 
L 414.373772 270.368923 
L 416.639057 272.634334 
L 418.979851 274.050627 
L 421.245135 273.70164 
L 423.585929 274.165658 
L 425.926723 274.951839 
L 428.192008 276.741763 
L 430.532802 277.405085 
L 432.798087 278.180813 
L 435.138881 279.36003 
L 437.479675 281.070592 
L 439.66945 282.435232 
L 442.010244 283.481747 
L 444.275528 265.811198 
L 446.616322 267.030574 
L 448.881607 268.716241 
L 451.222401 270.857446 
L 453.563195 272.469845 
L 455.82848 273.239064 
L 458.169274 274.259795 
L 460.434558 275.84931 
L 462.775353 277.812967 
L 465.116147 279.129618 
L 469.571206 281.83005 
L 471.836491 249.544153 
L 474.177285 250.795709 
L 476.442569 250.744106 
L 478.783364 251.38149 
L 481.124158 251.814203 
L 483.389442 252.701668 
L 485.730236 254.588404 
L 487.995521 255.964824 
L 490.336315 256.861973 
L 492.677109 258.324546 
L 494.791375 259.337022 
L 497.132169 219.42626 
L 499.397453 220.027127 
L 501.738247 220.313321 
L 504.003532 219.71143 
L 506.344326 220.254576 
L 508.68512 220.397517 
L 510.950405 220.996531 
L 515.556483 222.812363 
L 522.352337 226.632219 
L 524.693131 203.788127 
L 529.29921 205.384291 
L 531.564494 206.223839 
L 533.905288 206.942446 
L 536.246082 208.342793 
L 538.511367 208.878075 
L 540.852161 209.767411 
L 543.117446 210.889054 
L 545.45824 213.058784 
L 547.799034 214.633162 
L 549.988809 189.331359 
L 552.329603 190.845379 
L 554.594888 192.57012 
L 559.200966 197.314726 
L 561.54176 198.942628 
L 566.147839 200.595117 
L 568.488633 201.964496 
L 570.753918 203.056028 
L 573.094712 203.902732 
L 575.435506 169.098872 
L 577.549771 170.943119 
L 579.890565 171.611669 
L 584.496644 174.768028 
L 586.761929 175.956539 
L 589.102723 176.747108 
L 591.443517 177.2404 
L 596.049595 178.944417 
L 598.31488 180.281098 
L 600.655674 150.057882 
L 602.996468 152.708835 
L 605.110734 155.444295 
L 607.451528 157.25851 
L 609.716812 159.236737 
L 612.057606 160.72241 
L 616.663685 160.756835 
L 619.004479 160.894466 
L 621.269764 162.440794 
L 623.610558 165.000096 
L 625.875842 167.808435 
L 628.216636 169.927157 
L 630.557431 149.808161 
L 632.671696 152.636732 
L 637.277775 158.088489 
L 639.618569 159.717413 
L 644.224647 160.788687 
L 646.565442 162.06179 
L 648.830726 163.876415 
L 651.17152 165.34252 
L 653.436805 167.105781 
L 655.777599 121.122084 
L 658.118393 123.266409 
L 660.308168 124.981604 
L 662.648962 125.780461 
L 664.914247 128.199591 
L 667.255041 129.5552 
L 669.520325 129.855847 
L 674.201913 132.997722 
L 681.073277 139.490236 
L 683.414071 109.608105 
L 685.754865 112.989582 
L 687.86913 115.334701 
L 690.209924 117.163211 
L 692.475209 119.291382 
L 694.816003 120.717384 
L 697.081288 121.717418 
L 699.422082 121.832234 
L 701.762876 122.752417 
L 704.02816 124.089716 
L 708.634239 128.296286 
L 710.975033 106.335425 
L 713.315827 108.522165 
L 715.430093 111.247236 
L 717.770887 114.847859 
L 720.036171 117.452548 
L 722.376966 119.23233 
L 724.64225 120.774011 
L 726.983044 120.812956 
L 729.323838 121.774329 
L 731.589123 123.953023 
L 733.929917 125.551439 
L 736.195201 127.482817 
L 738.535996 97.195162 
L 740.87679 102.204473 
L 745.331849 112.273531 
L 749.937928 117.923675 
L 752.203213 120.967445 
L 754.544007 123.340776 
L 756.884801 124.181071 
L 759.150085 126.232724 
L 761.490879 129.322682 
L 763.756164 133.091068 
L 766.096958 93.491797 
L 768.437752 98.66716 
L 770.627527 102.302052 
L 772.968321 104.031193 
L 775.233606 106.469837 
L 777.5744 109.563206 
L 779.839684 110.946312 
L 782.180478 112.991307 
L 784.521273 114.713813 
L 786.786557 115.026801 
L 789.127351 116.041592 
L 791.392636 116.743011 
L 793.73343 92.756821 
L 798.18849 95.676906 
L 800.529284 96.700298 
L 802.794568 97.272764 
L 805.135362 98.536673 
L 807.400647 97.596874 
L 809.741441 98.575387 
L 814.34752 99.997634 
L 816.688314 101.69692 
L 818.953598 102.82657 
L 821.294392 97.307495 
L 823.635186 98.49004 
L 825.749452 99.790687 
L 828.090246 100.155974 
L 830.355531 101.047138 
L 832.696325 102.661504 
L 834.961609 107.682868 
L 837.302403 108.993904 
L 839.643197 108.63649 
L 841.908482 110.53556 
L 844.249276 112.307782 
L 846.514561 111.478695 
L 848.855355 93.892056 
L 851.196149 95.207074 
L 853.310414 96.966551 
L 855.651208 100.012793 
L 857.916493 102.314812 
L 860.257287 102.839252 
L 862.522572 102.879477 
L 864.863366 103.644554 
L 867.20416 104.08714 
L 869.469444 103.926382 
L 871.810238 104.328419 
L 874.075523 106.367663 
L 876.416317 94.674465 
L 878.757111 93.165174 
L 880.946886 94.195296 
L 883.28768 94.483395 
L 885.552965 93.203132 
L 887.893759 91.627858 
L 890.159044 92.702926 
L 892.499838 94.186045 
L 894.840632 95.172731 
L 897.105916 97.786744 
L 899.44671 101.269214 
L 901.711995 104.841354 
L 904.052789 89.344935 
L 906.393583 90.384362 
L 910.848643 97.728713 
L 913.113927 98.990942 
L 915.454721 102.343219 
L 917.720006 104.472395 
L 920.0608 108.292179 
L 922.401594 111.724065 
L 927.007673 121.061416 
L 929.272957 124.686056 
L 931.613751 88.887273 
L 933.954545 90.786307 
L 933.954545 90.786307 
" clip-path="url(#p55c2093d48)" style="fill: none; stroke: #348abd; stroke-width: 2; stroke-linecap: square"/>
   </g>
   <g id="patch_3">
    <path d="M 135 504 
L 135 69.12 
" style="fill: none; stroke: #ffffff; stroke-linejoin: miter; stroke-linecap: square"/>
   </g>
   <g id="patch_4">
    <path d="M 972 504 
L 972 69.12 
" style="fill: none; stroke: #ffffff; stroke-linejoin: miter; stroke-linecap: square"/>
   </g>
   <g id="patch_5">
    <path d="M 135 504 
L 972 504 
" style="fill: none; stroke: #ffffff; stroke-linejoin: miter; stroke-linecap: square"/>
   </g>
   <g id="patch_6">
    <path d="M 135 69.12 
L 972 69.12 
" style="fill: none; stroke: #ffffff; stroke-linejoin: miter; stroke-linecap: square"/>
   </g>
   <g id="text_16">
    <!-- Salário Mínimo Nominal vs Salário Mínimo Real Deflacionado para Valores de Fevereiro de 2022 -->
    <g transform="translate(209.14425 63.12)scale(0.144 -0.144)">
     <defs>
      <path id="DejaVuSans-53" d="M 3425 4513 
L 3425 3897 
Q 3066 4069 2747 4153 
Q 2428 4238 2131 4238 
Q 1616 4238 1336 4038 
Q 1056 3838 1056 3469 
Q 1056 3159 1242 3001 
Q 1428 2844 1947 2747 
L 2328 2669 
Q 3034 2534 3370 2195 
Q 3706 1856 3706 1288 
Q 3706 609 3251 259 
Q 2797 -91 1919 -91 
Q 1588 -91 1214 -16 
Q 841 59 441 206 
L 441 856 
Q 825 641 1194 531 
Q 1563 422 1919 422 
Q 2459 422 2753 634 
Q 3047 847 3047 1241 
Q 3047 1584 2836 1778 
Q 2625 1972 2144 2069 
L 1759 2144 
Q 1053 2284 737 2584 
Q 422 2884 422 3419 
Q 422 4038 858 4394 
Q 1294 4750 2059 4750 
Q 2388 4750 2728 4690 
Q 3069 4631 3425 4513 
z
" transform="scale(0.015625)"/>
      <path id="DejaVuSans-6c" d="M 603 4863 
L 1178 4863 
L 1178 0 
L 603 0 
L 603 4863 
z
" transform="scale(0.015625)"/>
      <path id="DejaVuSans-e1" d="M 2194 1759 
Q 1497 1759 1228 1600 
Q 959 1441 959 1056 
Q 959 750 1161 570 
Q 1363 391 1709 391 
Q 2188 391 2477 730 
Q 2766 1069 2766 1631 
L 2766 1759 
L 2194 1759 
z
M 3341 1997 
L 3341 0 
L 2766 0 
L 2766 531 
Q 2569 213 2275 61 
Q 1981 -91 1556 -91 
Q 1019 -91 701 211 
Q 384 513 384 1019 
Q 384 1609 779 1909 
Q 1175 2209 1959 2209 
L 2766 2209 
L 2766 2266 
Q 2766 2663 2505 2880 
Q 2244 3097 1772 3097 
Q 1472 3097 1187 3025 
Q 903 2953 641 2809 
L 641 3341 
Q 956 3463 1253 3523 
Q 1550 3584 1831 3584 
Q 2591 3584 2966 3190 
Q 3341 2797 3341 1997 
z
M 2290 5119 
L 2912 5119 
L 1894 3944 
L 1415 3944 
L 2290 5119 
z
" transform="scale(0.015625)"/>
      <path id="DejaVuSans-72" d="M 2631 2963 
Q 2534 3019 2420 3045 
Q 2306 3072 2169 3072 
Q 1681 3072 1420 2755 
Q 1159 2438 1159 1844 
L 1159 0 
L 581 0 
L 581 3500 
L 1159 3500 
L 1159 2956 
Q 1341 3275 1631 3429 
Q 1922 3584 2338 3584 
Q 2397 3584 2469 3576 
Q 2541 3569 2628 3553 
L 2631 2963 
z
" transform="scale(0.015625)"/>
      <path id="DejaVuSans-6f" d="M 1959 3097 
Q 1497 3097 1228 2736 
Q 959 2375 959 1747 
Q 959 1119 1226 758 
Q 1494 397 1959 397 
Q 2419 397 2687 759 
Q 2956 1122 2956 1747 
Q 2956 2369 2687 2733 
Q 2419 3097 1959 3097 
z
M 1959 3584 
Q 2709 3584 3137 3096 
Q 3566 2609 3566 1747 
Q 3566 888 3137 398 
Q 2709 -91 1959 -91 
Q 1206 -91 779 398 
Q 353 888 353 1747 
Q 353 2609 779 3096 
Q 1206 3584 1959 3584 
z
" transform="scale(0.015625)"/>
      <path id="DejaVuSans-ed" d="M 1322 5119 
L 1944 5119 
L 926 3944 
L 447 3944 
L 1322 5119 
z
M 603 3500 
L 1178 3500 
L 1178 0 
L 603 0 
L 603 3500 
z
M 891 3584 
L 891 3584 
z
" transform="scale(0.015625)"/>
      <path id="DejaVuSans-6e" d="M 3513 2113 
L 3513 0 
L 2938 0 
L 2938 2094 
Q 2938 2591 2744 2837 
Q 2550 3084 2163 3084 
Q 1697 3084 1428 2787 
Q 1159 2491 1159 1978 
L 1159 0 
L 581 0 
L 581 3500 
L 1159 3500 
L 1159 2956 
Q 1366 3272 1645 3428 
Q 1925 3584 2291 3584 
Q 2894 3584 3203 3211 
Q 3513 2838 3513 2113 
z
" transform="scale(0.015625)"/>
      <path id="DejaVuSans-6d" d="M 3328 2828 
Q 3544 3216 3844 3400 
Q 4144 3584 4550 3584 
Q 5097 3584 5394 3201 
Q 5691 2819 5691 2113 
L 5691 0 
L 5113 0 
L 5113 2094 
Q 5113 2597 4934 2840 
Q 4756 3084 4391 3084 
Q 3944 3084 3684 2787 
Q 3425 2491 3425 1978 
L 3425 0 
L 2847 0 
L 2847 2094 
Q 2847 2600 2669 2842 
Q 2491 3084 2119 3084 
Q 1678 3084 1418 2786 
Q 1159 2488 1159 1978 
L 1159 0 
L 581 0 
L 581 3500 
L 1159 3500 
L 1159 2956 
Q 1356 3278 1631 3431 
Q 1906 3584 2284 3584 
Q 2666 3584 2933 3390 
Q 3200 3197 3328 2828 
z
" transform="scale(0.015625)"/>
      <path id="DejaVuSans-4e" d="M 628 4666 
L 1478 4666 
L 3547 763 
L 3547 4666 
L 4159 4666 
L 4159 0 
L 3309 0 
L 1241 3903 
L 1241 0 
L 628 0 
L 628 4666 
z
" transform="scale(0.015625)"/>
      <path id="DejaVuSans-76" d="M 191 3500 
L 800 3500 
L 1894 563 
L 2988 3500 
L 3597 3500 
L 2284 0 
L 1503 0 
L 191 3500 
z
" transform="scale(0.015625)"/>
      <path id="DejaVuSans-44" d="M 1259 4147 
L 1259 519 
L 2022 519 
Q 2988 519 3436 956 
Q 3884 1394 3884 2338 
Q 3884 3275 3436 3711 
Q 2988 4147 2022 4147 
L 1259 4147 
z
M 628 4666 
L 1925 4666 
Q 3281 4666 3915 4102 
Q 4550 3538 4550 2338 
Q 4550 1131 3912 565 
Q 3275 0 1925 0 
L 628 0 
L 628 4666 
z
" transform="scale(0.015625)"/>
      <path id="DejaVuSans-66" d="M 2375 4863 
L 2375 4384 
L 1825 4384 
Q 1516 4384 1395 4259 
Q 1275 4134 1275 3809 
L 1275 3500 
L 2222 3500 
L 2222 3053 
L 1275 3053 
L 1275 0 
L 697 0 
L 697 3053 
L 147 3053 
L 147 3500 
L 697 3500 
L 697 3744 
Q 697 4328 969 4595 
Q 1241 4863 1831 4863 
L 2375 4863 
z
" transform="scale(0.015625)"/>
      <path id="DejaVuSans-63" d="M 3122 3366 
L 3122 2828 
Q 2878 2963 2633 3030 
Q 2388 3097 2138 3097 
Q 1578 3097 1268 2742 
Q 959 2388 959 1747 
Q 959 1106 1268 751 
Q 1578 397 2138 397 
Q 2388 397 2633 464 
Q 2878 531 3122 666 
L 3122 134 
Q 2881 22 2623 -34 
Q 2366 -91 2075 -91 
Q 1284 -91 818 406 
Q 353 903 353 1747 
Q 353 2603 823 3093 
Q 1294 3584 2113 3584 
Q 2378 3584 2631 3529 
Q 2884 3475 3122 3366 
z
" transform="scale(0.015625)"/>
      <path id="DejaVuSans-64" d="M 2906 2969 
L 2906 4863 
L 3481 4863 
L 3481 0 
L 2906 0 
L 2906 525 
Q 2725 213 2448 61 
Q 2172 -91 1784 -91 
Q 1150 -91 751 415 
Q 353 922 353 1747 
Q 353 2572 751 3078 
Q 1150 3584 1784 3584 
Q 2172 3584 2448 3432 
Q 2725 3281 2906 2969 
z
M 947 1747 
Q 947 1113 1208 752 
Q 1469 391 1925 391 
Q 2381 391 2643 752 
Q 2906 1113 2906 1747 
Q 2906 2381 2643 2742 
Q 2381 3103 1925 3103 
Q 1469 3103 1208 2742 
Q 947 2381 947 1747 
z
" transform="scale(0.015625)"/>
      <path id="DejaVuSans-70" d="M 1159 525 
L 1159 -1331 
L 581 -1331 
L 581 3500 
L 1159 3500 
L 1159 2969 
Q 1341 3281 1617 3432 
Q 1894 3584 2278 3584 
Q 2916 3584 3314 3078 
Q 3713 2572 3713 1747 
Q 3713 922 3314 415 
Q 2916 -91 2278 -91 
Q 1894 -91 1617 61 
Q 1341 213 1159 525 
z
M 3116 1747 
Q 3116 2381 2855 2742 
Q 2594 3103 2138 3103 
Q 1681 3103 1420 2742 
Q 1159 2381 1159 1747 
Q 1159 1113 1420 752 
Q 1681 391 2138 391 
Q 2594 391 2855 752 
Q 3116 1113 3116 1747 
z
" transform="scale(0.015625)"/>
      <path id="DejaVuSans-56" d="M 1831 0 
L 50 4666 
L 709 4666 
L 2188 738 
L 3669 4666 
L 4325 4666 
L 2547 0 
L 1831 0 
z
" transform="scale(0.015625)"/>
      <path id="DejaVuSans-46" d="M 628 4666 
L 3309 4666 
L 3309 4134 
L 1259 4134 
L 1259 2759 
L 3109 2759 
L 3109 2228 
L 1259 2228 
L 1259 0 
L 628 0 
L 628 4666 
z
" transform="scale(0.015625)"/>
     </defs>
     <use xlink:href="#DejaVuSans-53"/>
     <use xlink:href="#DejaVuSans-61" x="63.476562"/>
     <use xlink:href="#DejaVuSans-6c" x="124.755859"/>
     <use xlink:href="#DejaVuSans-e1" x="152.539062"/>
     <use xlink:href="#DejaVuSans-72" x="213.818359"/>
     <use xlink:href="#DejaVuSans-69" x="254.931641"/>
     <use xlink:href="#DejaVuSans-6f" x="282.714844"/>
     <use xlink:href="#DejaVuSans-20" x="343.896484"/>
     <use xlink:href="#DejaVuSans-4d" x="375.683594"/>
     <use xlink:href="#DejaVuSans-ed" x="461.962891"/>
     <use xlink:href="#DejaVuSans-6e" x="489.746094"/>
     <use xlink:href="#DejaVuSans-69" x="553.125"/>
     <use xlink:href="#DejaVuSans-6d" x="580.908203"/>
     <use xlink:href="#DejaVuSans-6f" x="678.320312"/>
     <use xlink:href="#DejaVuSans-20" x="739.501953"/>
     <use xlink:href="#DejaVuSans-4e" x="771.289062"/>
     <use xlink:href="#DejaVuSans-6f" x="846.09375"/>
     <use xlink:href="#DejaVuSans-6d" x="907.275391"/>
     <use xlink:href="#DejaVuSans-69" x="1004.6875"/>
     <use xlink:href="#DejaVuSans-6e" x="1032.470703"/>
     <use xlink:href="#DejaVuSans-61" x="1095.849609"/>
     <use xlink:href="#DejaVuSans-6c" x="1157.128906"/>
     <use xlink:href="#DejaVuSans-20" x="1184.912109"/>
     <use xlink:href="#DejaVuSans-76" x="1216.699219"/>
     <use xlink:href="#DejaVuSans-73" x="1275.878906"/>
     <use xlink:href="#DejaVuSans-20" x="1327.978516"/>
     <use xlink:href="#DejaVuSans-53" x="1359.765625"/>
     <use xlink:href="#DejaVuSans-61" x="1423.242188"/>
     <use xlink:href="#DejaVuSans-6c" x="1484.521484"/>
     <use xlink:href="#DejaVuSans-e1" x="1512.304688"/>
     <use xlink:href="#DejaVuSans-72" x="1573.583984"/>
     <use xlink:href="#DejaVuSans-69" x="1614.697266"/>
     <use xlink:href="#DejaVuSans-6f" x="1642.480469"/>
     <use xlink:href="#DejaVuSans-20" x="1703.662109"/>
     <use xlink:href="#DejaVuSans-4d" x="1735.449219"/>
     <use xlink:href="#DejaVuSans-ed" x="1821.728516"/>
     <use xlink:href="#DejaVuSans-6e" x="1849.511719"/>
     <use xlink:href="#DejaVuSans-69" x="1912.890625"/>
     <use xlink:href="#DejaVuSans-6d" x="1940.673828"/>
     <use xlink:href="#DejaVuSans-6f" x="2038.085938"/>
     <use xlink:href="#DejaVuSans-20" x="2099.267578"/>
     <use xlink:href="#DejaVuSans-52" x="2131.054688"/>
     <use xlink:href="#DejaVuSans-65" x="2196.037109"/>
     <use xlink:href="#DejaVuSans-61" x="2257.560547"/>
     <use xlink:href="#DejaVuSans-6c" x="2318.839844"/>
     <use xlink:href="#DejaVuSans-20" x="2346.623047"/>
     <use xlink:href="#DejaVuSans-44" x="2378.410156"/>
     <use xlink:href="#DejaVuSans-65" x="2455.412109"/>
     <use xlink:href="#DejaVuSans-66" x="2516.935547"/>
     <use xlink:href="#DejaVuSans-6c" x="2552.140625"/>
     <use xlink:href="#DejaVuSans-61" x="2579.923828"/>
     <use xlink:href="#DejaVuSans-63" x="2641.203125"/>
     <use xlink:href="#DejaVuSans-69" x="2696.183594"/>
     <use xlink:href="#DejaVuSans-6f" x="2723.966797"/>
     <use xlink:href="#DejaVuSans-6e" x="2785.148438"/>
     <use xlink:href="#DejaVuSans-61" x="2848.527344"/>
     <use xlink:href="#DejaVuSans-64" x="2909.806641"/>
     <use xlink:href="#DejaVuSans-6f" x="2973.283203"/>
     <use xlink:href="#DejaVuSans-20" x="3034.464844"/>
     <use xlink:href="#DejaVuSans-70" x="3066.251953"/>
     <use xlink:href="#DejaVuSans-61" x="3129.728516"/>
     <use xlink:href="#DejaVuSans-72" x="3191.007812"/>
     <use xlink:href="#DejaVuSans-61" x="3232.121094"/>
     <use xlink:href="#DejaVuSans-20" x="3293.400391"/>
     <use xlink:href="#DejaVuSans-56" x="3325.1875"/>
     <use xlink:href="#DejaVuSans-61" x="3385.845703"/>
     <use xlink:href="#DejaVuSans-6c" x="3447.125"/>
     <use xlink:href="#DejaVuSans-6f" x="3474.908203"/>
     <use xlink:href="#DejaVuSans-72" x="3536.089844"/>
     <use xlink:href="#DejaVuSans-65" x="3574.953125"/>
     <use xlink:href="#DejaVuSans-73" x="3636.476562"/>
     <use xlink:href="#DejaVuSans-20" x="3688.576172"/>
     <use xlink:href="#DejaVuSans-64" x="3720.363281"/>
     <use xlink:href="#DejaVuSans-65" x="3783.839844"/>
     <use xlink:href="#DejaVuSans-20" x="3845.363281"/>
     <use xlink:href="#DejaVuSans-46" x="3877.150391"/>
     <use xlink:href="#DejaVuSans-65" x="3929.169922"/>
     <use xlink:href="#DejaVuSans-76" x="3990.693359"/>
     <use xlink:href="#DejaVuSans-65" x="4049.873047"/>
     <use xlink:href="#DejaVuSans-72" x="4111.396484"/>
     <use xlink:href="#DejaVuSans-65" x="4150.259766"/>
     <use xlink:href="#DejaVuSans-69" x="4211.783203"/>
     <use xlink:href="#DejaVuSans-72" x="4239.566406"/>
     <use xlink:href="#DejaVuSans-6f" x="4278.429688"/>
     <use xlink:href="#DejaVuSans-20" x="4339.611328"/>
     <use xlink:href="#DejaVuSans-64" x="4371.398438"/>
     <use xlink:href="#DejaVuSans-65" x="4434.875"/>
     <use xlink:href="#DejaVuSans-20" x="4496.398438"/>
     <use xlink:href="#DejaVuSans-32" x="4528.185547"/>
     <use xlink:href="#DejaVuSans-30" x="4591.808594"/>
     <use xlink:href="#DejaVuSans-32" x="4655.431641"/>
     <use xlink:href="#DejaVuSans-32" x="4719.054688"/>
    </g>
   </g>
   <g id="legend_1">
    <g id="patch_7">
     <path d="M 152.37 137.168588 
L 241.420625 137.168588 
Q 243.420625 137.168588 243.420625 135.168588 
L 243.420625 91.1664 
Q 243.420625 89.1664 241.420625 89.1664 
L 152.37 89.1664 
Q 150.37 89.1664 150.37 91.1664 
L 150.37 135.168588 
Q 150.37 137.168588 152.37 137.168588 
z
" style="fill: #4c4c4c; opacity: 0.5; stroke: #4c4c4c; stroke-width: 0.5; stroke-linejoin: miter"/>
    </g>
    <g id="patch_8">
     <path d="M 150.37 135.168588 
L 239.420625 135.168588 
Q 241.420625 135.168588 241.420625 133.168588 
L 241.420625 89.1664 
Q 241.420625 87.1664 239.420625 87.1664 
L 150.37 87.1664 
Q 148.37 87.1664 148.37 89.1664 
L 148.37 133.168588 
Q 148.37 135.168588 150.37 135.168588 
z
" style="fill: #ffffff; stroke: #cccccc; stroke-width: 0.5; stroke-linejoin: miter"/>
    </g>
    <g id="text_17">
     <!-- Salário Mínimo: -->
     <g transform="translate(152.37 99.524681)scale(0.11 -0.11)">
      <defs>
       <path id="DejaVuSans-3a" d="M 750 794 
L 1409 794 
L 1409 0 
L 750 0 
L 750 794 
z
M 750 3309 
L 1409 3309 
L 1409 2516 
L 750 2516 
L 750 3309 
z
" transform="scale(0.015625)"/>
      </defs>
      <use xlink:href="#DejaVuSans-53"/>
      <use xlink:href="#DejaVuSans-61" x="63.476562"/>
      <use xlink:href="#DejaVuSans-6c" x="124.755859"/>
      <use xlink:href="#DejaVuSans-e1" x="152.539062"/>
      <use xlink:href="#DejaVuSans-72" x="213.818359"/>
      <use xlink:href="#DejaVuSans-69" x="254.931641"/>
      <use xlink:href="#DejaVuSans-6f" x="282.714844"/>
      <use xlink:href="#DejaVuSans-20" x="343.896484"/>
      <use xlink:href="#DejaVuSans-4d" x="375.683594"/>
      <use xlink:href="#DejaVuSans-ed" x="461.962891"/>
      <use xlink:href="#DejaVuSans-6e" x="489.746094"/>
      <use xlink:href="#DejaVuSans-69" x="553.125"/>
      <use xlink:href="#DejaVuSans-6d" x="580.908203"/>
      <use xlink:href="#DejaVuSans-6f" x="678.320312"/>
      <use xlink:href="#DejaVuSans-3a" x="739.501953"/>
     </g>
    </g>
    <g id="line2d_29">
     <path d="M 160.214063 110.910775 
L 170.214063 110.910775 
L 180.214063 110.910775 
" style="fill: none; stroke: #e24a33; stroke-width: 2; stroke-linecap: square"/>
    </g>
    <g id="text_18">
     <!-- Nominal -->
     <g transform="translate(188.214063 114.410775)scale(0.1 -0.1)">
      <use xlink:href="#DejaVuSans-4e"/>
      <use xlink:href="#DejaVuSans-6f" x="74.804688"/>
      <use xlink:href="#DejaVuSans-6d" x="135.986328"/>
      <use xlink:href="#DejaVuSans-69" x="233.398438"/>
      <use xlink:href="#DejaVuSans-6e" x="261.181641"/>
      <use xlink:href="#DejaVuSans-61" x="324.560547"/>
      <use xlink:href="#DejaVuSans-6c" x="385.839844"/>
     </g>
    </g>
    <g id="line2d_30">
     <path d="M 160.214063 125.5889 
L 170.214063 125.5889 
L 180.214063 125.5889 
" style="fill: none; stroke: #348abd; stroke-width: 2; stroke-linecap: square"/>
    </g>
    <g id="text_19">
     <!-- Real -->
     <g transform="translate(188.214063 129.0889)scale(0.1 -0.1)">
      <use xlink:href="#DejaVuSans-52"/>
      <use xlink:href="#DejaVuSans-65" x="64.982422"/>
      <use xlink:href="#DejaVuSans-61" x="126.505859"/>
      <use xlink:href="#DejaVuSans-6c" x="187.785156"/>
     </g>
    </g>
   </g>
  </g>
 </g>
 <defs>
  <clipPath id="p55c2093d48">
   <rect x="135" y="69.12" width="837" height="434.88"/>
  </clipPath>
 </defs>
</svg>
